<?xml version="1.0" encoding="UTF-8"?>
        <!DOCTYPE svg PUBLIC "-//W3C//DTD SVG 1.1//EN"
           "http://www.w3.org/Graphics/SVG/1.1/DTD/svg11.dtd">

        <svg xmlns="http://www.w3.org/2000/svg" class="pyqrcode"
             width="216" height="216">
        <title>QR code</title>
        
        <line class="pyqrline" x1="8" y1="8" x2="64" y2="8"
              stroke="black" stroke-width="8"/>
        <line class="pyqrline" x1="72" y1="8" x2="80" y2="8"
              stroke="black" stroke-width="8"/>
        <line class="pyqrline" x1="96" y1="8" x2="112" y2="8"
              stroke="black" stroke-width="8"/>
        <line class="pyqrline" x1="120" y1="8" x2="128" y2="8"
              stroke="black" stroke-width="8"/>
        <line class="pyqrline" x1="152" y1="8" x2="208" y2="8"
              stroke="black" stroke-width="8"/>
        <line class="pyqrline" x1="8" y1="16" x2="16" y2="16"
              stroke="black" stroke-width="8"/>
        <line class="pyqrline" x1="56" y1="16" x2="64" y2="16"
              stroke="black" stroke-width="8"/>
        <line class="pyqrline" x1="96" y1="16" x2="112" y2="16"
              stroke="black" stroke-width="8"/>
        <line class="pyqrline" x1="128" y1="16" x2="144" y2="16"
              stroke="black" stroke-width="8"/>
        <line class="pyqrline" x1="152" y1="16" x2="160" y2="16"
              stroke="black" stroke-width="8"/>
        <line class="pyqrline" x1="200" y1="16" x2="208" y2="16"
              stroke="black" stroke-width="8"/>
        <line class="pyqrline" x1="8" y1="24" x2="16" y2="24"
              stroke="black" stroke-width="8"/>
        <line class="pyqrline" x1="24" y1="24" x2="48" y2="24"
              stroke="black" stroke-width="8"/>
        <line class="pyqrline" x1="56" y1="24" x2="64" y2="24"
              stroke="black" stroke-width="8"/>
        <line class="pyqrline" x1="72" y1="24" x2="80" y2="24"
              stroke="black" stroke-width="8"/>
        <line class="pyqrline" x1="104" y1="24" x2="112" y2="24"
              stroke="black" stroke-width="8"/>
        <line class="pyqrline" x1="120" y1="24" x2="128" y2="24"
              stroke="black" stroke-width="8"/>
        <line class="pyqrline" x1="152" y1="24" x2="160" y2="24"
              stroke="black" stroke-width="8"/>
        <line class="pyqrline" x1="168" y1="24" x2="192" y2="24"
              stroke="black" stroke-width="8"/>
        <line class="pyqrline" x1="200" y1="24" x2="208" y2="24"
              stroke="black" stroke-width="8"/>
        <line class="pyqrline" x1="8" y1="32" x2="16" y2="32"
              stroke="black" stroke-width="8"/>
        <line class="pyqrline" x1="24" y1="32" x2="48" y2="32"
              stroke="black" stroke-width="8"/>
        <line class="pyqrline" x1="56" y1="32" x2="64" y2="32"
              stroke="black" stroke-width="8"/>
        <line class="pyqrline" x1="88" y1="32" x2="96" y2="32"
              stroke="black" stroke-width="8"/>
        <line class="pyqrline" x1="128" y1="32" x2="144" y2="32"
              stroke="black" stroke-width="8"/>
        <line class="pyqrline" x1="152" y1="32" x2="160" y2="32"
              stroke="black" stroke-width="8"/>
        <line class="pyqrline" x1="168" y1="32" x2="192" y2="32"
              stroke="black" stroke-width="8"/>
        <line class="pyqrline" x1="200" y1="32" x2="208" y2="32"
              stroke="black" stroke-width="8"/>
        <line class="pyqrline" x1="8" y1="40" x2="16" y2="40"
              stroke="black" stroke-width="8"/>
        <line class="pyqrline" x1="24" y1="40" x2="48" y2="40"
              stroke="black" stroke-width="8"/>
        <line class="pyqrline" x1="56" y1="40" x2="64" y2="40"
              stroke="black" stroke-width="8"/>
        <line class="pyqrline" x1="72" y1="40" x2="104" y2="40"
              stroke="black" stroke-width="8"/>
        <line class="pyqrline" x1="112" y1="40" x2="128" y2="40"
              stroke="black" stroke-width="8"/>
        <line class="pyqrline" x1="136" y1="40" x2="144" y2="40"
              stroke="black" stroke-width="8"/>
        <line class="pyqrline" x1="152" y1="40" x2="160" y2="40"
              stroke="black" stroke-width="8"/>
        <line class="pyqrline" x1="168" y1="40" x2="192" y2="40"
              stroke="black" stroke-width="8"/>
        <line class="pyqrline" x1="200" y1="40" x2="208" y2="40"
              stroke="black" stroke-width="8"/>
        <line class="pyqrline" x1="8" y1="48" x2="16" y2="48"
              stroke="black" stroke-width="8"/>
        <line class="pyqrline" x1="56" y1="48" x2="64" y2="48"
              stroke="black" stroke-width="8"/>
        <line class="pyqrline" x1="88" y1="48" x2="96" y2="48"
              stroke="black" stroke-width="8"/>
        <line class="pyqrline" x1="112" y1="48" x2="128" y2="48"
              stroke="black" stroke-width="8"/>
        <line class="pyqrline" x1="136" y1="48" x2="144" y2="48"
              stroke="black" stroke-width="8"/>
        <line class="pyqrline" x1="152" y1="48" x2="160" y2="48"
              stroke="black" stroke-width="8"/>
        <line class="pyqrline" x1="200" y1="48" x2="208" y2="48"
              stroke="black" stroke-width="8"/>
        <line class="pyqrline" x1="8" y1="56" x2="64" y2="56"
              stroke="black" stroke-width="8"/>
        <line class="pyqrline" x1="72" y1="56" x2="80" y2="56"
              stroke="black" stroke-width="8"/>
        <line class="pyqrline" x1="88" y1="56" x2="96" y2="56"
              stroke="black" stroke-width="8"/>
        <line class="pyqrline" x1="104" y1="56" x2="112" y2="56"
              stroke="black" stroke-width="8"/>
        <line class="pyqrline" x1="120" y1="56" x2="128" y2="56"
              stroke="black" stroke-width="8"/>
        <line class="pyqrline" x1="136" y1="56" x2="144" y2="56"
              stroke="black" stroke-width="8"/>
        <line class="pyqrline" x1="152" y1="56" x2="208" y2="56"
              stroke="black" stroke-width="8"/>
        <line class="pyqrline" x1="8" y1="64" x2="8" y2="64"
              stroke="black" stroke-width="8"/>
        <line class="pyqrline" x1="72" y1="64" x2="80" y2="64"
              stroke="black" stroke-width="8"/>
        <line class="pyqrline" x1="96" y1="64" x2="120" y2="64"
              stroke="black" stroke-width="8"/>
        <line class="pyqrline" x1="128" y1="64" x2="136" y2="64"
              stroke="black" stroke-width="8"/>
        <line class="pyqrline" x1="48" y1="72" x2="64" y2="72"
              stroke="black" stroke-width="8"/>
        <line class="pyqrline" x1="96" y1="72" x2="128" y2="72"
              stroke="black" stroke-width="8"/>
        <line class="pyqrline" x1="136" y1="72" x2="144" y2="72"
              stroke="black" stroke-width="8"/>
        <line class="pyqrline" x1="152" y1="72" x2="160" y2="72"
              stroke="black" stroke-width="8"/>
        <line class="pyqrline" x1="168" y1="72" x2="176" y2="72"
              stroke="black" stroke-width="8"/>
        <line class="pyqrline" x1="184" y1="72" x2="192" y2="72"
              stroke="black" stroke-width="8"/>
        <line class="pyqrline" x1="200" y1="72" x2="208" y2="72"
              stroke="black" stroke-width="8"/>
        <line class="pyqrline" x1="8" y1="80" x2="16" y2="80"
              stroke="black" stroke-width="8"/>
        <line class="pyqrline" x1="32" y1="80" x2="40" y2="80"
              stroke="black" stroke-width="8"/>
        <line class="pyqrline" x1="48" y1="80" x2="56" y2="80"
              stroke="black" stroke-width="8"/>
        <line class="pyqrline" x1="72" y1="80" x2="120" y2="80"
              stroke="black" stroke-width="8"/>
        <line class="pyqrline" x1="136" y1="80" x2="160" y2="80"
              stroke="black" stroke-width="8"/>
        <line class="pyqrline" x1="176" y1="80" x2="192" y2="80"
              stroke="black" stroke-width="8"/>
        <line class="pyqrline" x1="8" y1="88" x2="40" y2="88"
              stroke="black" stroke-width="8"/>
        <line class="pyqrline" x1="56" y1="88" x2="64" y2="88"
              stroke="black" stroke-width="8"/>
        <line class="pyqrline" x1="72" y1="88" x2="88" y2="88"
              stroke="black" stroke-width="8"/>
        <line class="pyqrline" x1="104" y1="88" x2="120" y2="88"
              stroke="black" stroke-width="8"/>
        <line class="pyqrline" x1="128" y1="88" x2="136" y2="88"
              stroke="black" stroke-width="8"/>
        <line class="pyqrline" x1="144" y1="88" x2="152" y2="88"
              stroke="black" stroke-width="8"/>
        <line class="pyqrline" x1="160" y1="88" x2="168" y2="88"
              stroke="black" stroke-width="8"/>
        <line class="pyqrline" x1="192" y1="88" x2="208" y2="88"
              stroke="black" stroke-width="8"/>
        <line class="pyqrline" x1="8" y1="96" x2="16" y2="96"
              stroke="black" stroke-width="8"/>
        <line class="pyqrline" x1="32" y1="96" x2="40" y2="96"
              stroke="black" stroke-width="8"/>
        <line class="pyqrline" x1="48" y1="96" x2="56" y2="96"
              stroke="black" stroke-width="8"/>
        <line class="pyqrline" x1="72" y1="96" x2="80" y2="96"
              stroke="black" stroke-width="8"/>
        <line class="pyqrline" x1="88" y1="96" x2="112" y2="96"
              stroke="black" stroke-width="8"/>
        <line class="pyqrline" x1="120" y1="96" x2="128" y2="96"
              stroke="black" stroke-width="8"/>
        <line class="pyqrline" x1="136" y1="96" x2="144" y2="96"
              stroke="black" stroke-width="8"/>
        <line class="pyqrline" x1="152" y1="96" x2="160" y2="96"
              stroke="black" stroke-width="8"/>
        <line class="pyqrline" x1="168" y1="96" x2="192" y2="96"
              stroke="black" stroke-width="8"/>
        <line class="pyqrline" x1="40" y1="104" x2="72" y2="104"
              stroke="black" stroke-width="8"/>
        <line class="pyqrline" x1="80" y1="104" x2="104" y2="104"
              stroke="black" stroke-width="8"/>
        <line class="pyqrline" x1="112" y1="104" x2="128" y2="104"
              stroke="black" stroke-width="8"/>
        <line class="pyqrline" x1="144" y1="104" x2="176" y2="104"
              stroke="black" stroke-width="8"/>
        <line class="pyqrline" x1="192" y1="104" x2="200" y2="104"
              stroke="black" stroke-width="8"/>
        <line class="pyqrline" x1="8" y1="112" x2="32" y2="112"
              stroke="black" stroke-width="8"/>
        <line class="pyqrline" x1="40" y1="112" x2="48" y2="112"
              stroke="black" stroke-width="8"/>
        <line class="pyqrline" x1="80" y1="112" x2="112" y2="112"
              stroke="black" stroke-width="8"/>
        <line class="pyqrline" x1="152" y1="112" x2="160" y2="112"
              stroke="black" stroke-width="8"/>
        <line class="pyqrline" x1="184" y1="112" x2="192" y2="112"
              stroke="black" stroke-width="8"/>
        <line class="pyqrline" x1="8" y1="120" x2="16" y2="120"
              stroke="black" stroke-width="8"/>
        <line class="pyqrline" x1="24" y1="120" x2="32" y2="120"
              stroke="black" stroke-width="8"/>
        <line class="pyqrline" x1="40" y1="120" x2="80" y2="120"
              stroke="black" stroke-width="8"/>
        <line class="pyqrline" x1="120" y1="120" x2="152" y2="120"
              stroke="black" stroke-width="8"/>
        <line class="pyqrline" x1="168" y1="120" x2="176" y2="120"
              stroke="black" stroke-width="8"/>
        <line class="pyqrline" x1="8" y1="128" x2="16" y2="128"
              stroke="black" stroke-width="8"/>
        <line class="pyqrline" x1="24" y1="128" x2="40" y2="128"
              stroke="black" stroke-width="8"/>
        <line class="pyqrline" x1="48" y1="128" x2="56" y2="128"
              stroke="black" stroke-width="8"/>
        <line class="pyqrline" x1="64" y1="128" x2="72" y2="128"
              stroke="black" stroke-width="8"/>
        <line class="pyqrline" x1="136" y1="128" x2="144" y2="128"
              stroke="black" stroke-width="8"/>
        <line class="pyqrline" x1="160" y1="128" x2="168" y2="128"
              stroke="black" stroke-width="8"/>
        <line class="pyqrline" x1="176" y1="128" x2="184" y2="128"
              stroke="black" stroke-width="8"/>
        <line class="pyqrline" x1="192" y1="128" x2="208" y2="128"
              stroke="black" stroke-width="8"/>
        <line class="pyqrline" x1="8" y1="136" x2="16" y2="136"
              stroke="black" stroke-width="8"/>
        <line class="pyqrline" x1="24" y1="136" x2="40" y2="136"
              stroke="black" stroke-width="8"/>
        <line class="pyqrline" x1="56" y1="136" x2="96" y2="136"
              stroke="black" stroke-width="8"/>
        <line class="pyqrline" x1="104" y1="136" x2="176" y2="136"
              stroke="black" stroke-width="8"/>
        <line class="pyqrline" x1="184" y1="136" x2="192" y2="136"
              stroke="black" stroke-width="8"/>
        <line class="pyqrline" x1="200" y1="136" x2="208" y2="136"
              stroke="black" stroke-width="8"/>
        <line class="pyqrline" x1="8" y1="144" x2="8" y2="144"
              stroke="black" stroke-width="8"/>
        <line class="pyqrline" x1="72" y1="144" x2="88" y2="144"
              stroke="black" stroke-width="8"/>
        <line class="pyqrline" x1="96" y1="144" x2="112" y2="144"
              stroke="black" stroke-width="8"/>
        <line class="pyqrline" x1="120" y1="144" x2="128" y2="144"
              stroke="black" stroke-width="8"/>
        <line class="pyqrline" x1="136" y1="144" x2="144" y2="144"
              stroke="black" stroke-width="8"/>
        <line class="pyqrline" x1="168" y1="144" x2="200" y2="144"
              stroke="black" stroke-width="8"/>
        <line class="pyqrline" x1="8" y1="152" x2="64" y2="152"
              stroke="black" stroke-width="8"/>
        <line class="pyqrline" x1="88" y1="152" x2="96" y2="152"
              stroke="black" stroke-width="8"/>
        <line class="pyqrline" x1="104" y1="152" x2="120" y2="152"
              stroke="black" stroke-width="8"/>
        <line class="pyqrline" x1="128" y1="152" x2="144" y2="152"
              stroke="black" stroke-width="8"/>
        <line class="pyqrline" x1="152" y1="152" x2="160" y2="152"
              stroke="black" stroke-width="8"/>
        <line class="pyqrline" x1="168" y1="152" x2="176" y2="152"
              stroke="black" stroke-width="8"/>
        <line class="pyqrline" x1="184" y1="152" x2="208" y2="152"
              stroke="black" stroke-width="8"/>
        <line class="pyqrline" x1="8" y1="160" x2="16" y2="160"
              stroke="black" stroke-width="8"/>
        <line class="pyqrline" x1="56" y1="160" x2="64" y2="160"
              stroke="black" stroke-width="8"/>
        <line class="pyqrline" x1="72" y1="160" x2="120" y2="160"
              stroke="black" stroke-width="8"/>
        <line class="pyqrline" x1="128" y1="160" x2="144" y2="160"
              stroke="black" stroke-width="8"/>
        <line class="pyqrline" x1="168" y1="160" x2="184" y2="160"
              stroke="black" stroke-width="8"/>
        <line class="pyqrline" x1="192" y1="160" x2="200" y2="160"
              stroke="black" stroke-width="8"/>
        <line class="pyqrline" x1="8" y1="168" x2="16" y2="168"
              stroke="black" stroke-width="8"/>
        <line class="pyqrline" x1="24" y1="168" x2="48" y2="168"
              stroke="black" stroke-width="8"/>
        <line class="pyqrline" x1="56" y1="168" x2="64" y2="168"
              stroke="black" stroke-width="8"/>
        <line class="pyqrline" x1="80" y1="168" x2="88" y2="168"
              stroke="black" stroke-width="8"/>
        <line class="pyqrline" x1="112" y1="168" x2="128" y2="168"
              stroke="black" stroke-width="8"/>
        <line class="pyqrline" x1="136" y1="168" x2="208" y2="168"
              stroke="black" stroke-width="8"/>
        <line class="pyqrline" x1="8" y1="176" x2="16" y2="176"
              stroke="black" stroke-width="8"/>
        <line class="pyqrline" x1="24" y1="176" x2="48" y2="176"
              stroke="black" stroke-width="8"/>
        <line class="pyqrline" x1="56" y1="176" x2="64" y2="176"
              stroke="black" stroke-width="8"/>
        <line class="pyqrline" x1="88" y1="176" x2="128" y2="176"
              stroke="black" stroke-width="8"/>
        <line class="pyqrline" x1="144" y1="176" x2="152" y2="176"
              stroke="black" stroke-width="8"/>
        <line class="pyqrline" x1="200" y1="176" x2="208" y2="176"
              stroke="black" stroke-width="8"/>
        <line class="pyqrline" x1="8" y1="184" x2="16" y2="184"
              stroke="black" stroke-width="8"/>
        <line class="pyqrline" x1="24" y1="184" x2="48" y2="184"
              stroke="black" stroke-width="8"/>
        <line class="pyqrline" x1="56" y1="184" x2="64" y2="184"
              stroke="black" stroke-width="8"/>
        <line class="pyqrline" x1="80" y1="184" x2="128" y2="184"
              stroke="black" stroke-width="8"/>
        <line class="pyqrline" x1="136" y1="184" x2="144" y2="184"
              stroke="black" stroke-width="8"/>
        <line class="pyqrline" x1="152" y1="184" x2="192" y2="184"
              stroke="black" stroke-width="8"/>
        <line class="pyqrline" x1="200" y1="184" x2="208" y2="184"
              stroke="black" stroke-width="8"/>
        <line class="pyqrline" x1="8" y1="192" x2="16" y2="192"
              stroke="black" stroke-width="8"/>
        <line class="pyqrline" x1="56" y1="192" x2="64" y2="192"
              stroke="black" stroke-width="8"/>
        <line class="pyqrline" x1="80" y1="192" x2="88" y2="192"
              stroke="black" stroke-width="8"/>
        <line class="pyqrline" x1="104" y1="192" x2="112" y2="192"
              stroke="black" stroke-width="8"/>
        <line class="pyqrline" x1="120" y1="192" x2="136" y2="192"
              stroke="black" stroke-width="8"/>
        <line class="pyqrline" x1="152" y1="192" x2="160" y2="192"
              stroke="black" stroke-width="8"/>
        <line class="pyqrline" x1="168" y1="192" x2="176" y2="192"
              stroke="black" stroke-width="8"/>
        <line class="pyqrline" x1="8" y1="200" x2="64" y2="200"
              stroke="black" stroke-width="8"/>
        <line class="pyqrline" x1="88" y1="200" x2="104" y2="200"
              stroke="black" stroke-width="8"/>
        <line class="pyqrline" x1="128" y1="200" x2="144" y2="200"
              stroke="black" stroke-width="8"/>
        <line class="pyqrline" x1="152" y1="200" x2="160" y2="200"
              stroke="black" stroke-width="8"/>
        <line class="pyqrline" x1="168" y1="200" x2="184" y2="200"
              stroke="black" stroke-width="8"/>
        <line class="pyqrline" x1="192" y1="200" x2="208" y2="200"
              stroke="black" stroke-width="8"/></svg>
